<svg xmlns="http://www.w3.org/2000/svg" viewBox="0 0 100 100">
    <defs>
        <linearGradient id="NKGlowGradient" x1="0%" y1="0%" x2="100%" y2="100%">
            <stop offset="0%" style="stop-color:#00e676;stop-opacity:1" /> <stop offset="100%" style="stop-color:#00a15a;stop-opacity:1" /> </linearGradient>
        
        <linearGradient id="RingGradient" x1="0%" y1="0%" x2="100%" y2="100%">
            <stop offset="0%" style="stop-color:#00ff88;stop-opacity:1" />
            <stop offset="100%" style="stop-color:#00a55a;stop-opacity:1" />
        </linearGradient>
    </defs>

    <circle cx="50" cy="50" r="45" fill="none" stroke="url(#RingGradient)" stroke-width="5"/>
    
    <g fill="url(#NKGlowGradient)">
        <path d="M25 60 L25 40 L40 40 L40 60 Z"/>
        <path d="M40 40 L40 60 L50 60 L50 40 Z"/>
        
        <path d="M50 40 L50 60 L60 60 L60 40 Z"/>
        <path d="M60 40 L60 50 L70 50 L70 40 Z"/>
        <path d="M60 50 L60 60 L70 60 L70 50 Z"/>
        
        <path d="M30 65 L30 35 L48 35 L50 50 L65 35 L75 35 L75 45 L65 50 L75 55 L75 65 L65 65 L50 50 L48 65 L30 65 Z" fill="url(#NKGlowGradient)"/>
        
        <path d="M32 68 L32 32 L40 32 L40 50 L48 50 L48 32 L56 32 L56 68 L48 68 L48 50 L40 50 L40 68 Z M58 68 L58 32 L66 32 L66 45 L78 32 L78 38 L68 48 L78 58 L78 68 L66 68 L66 55 L58 68 Z" fill="url(#NKGlowGradient)" transform="translate(-5, 0)"/>

    </g>
    
</svg>
