<?xml version="1.0" standalone="no"?>
<!DOCTYPE svg PUBLIC "-//W3C//DTD SVG 20010904//EN"
 "http://www.w3.org/TR/2001/REC-SVG-20010904/DTD/svg10.dtd">
<svg version="1.0" xmlns="http://www.w3.org/2000/svg"
 width="737.000000pt" height="696.000000pt" viewBox="0 0 737.000000 696.000000"
 preserveAspectRatio="xMidYMid meet">

<g transform="translate(0.000000,696.000000) scale(0.100000,-0.100000)"
fill="#000000" stroke="none">
<path d="M3764 5860 c-828 -49 -1565 -479 -2030 -1185 -200 -304 -332 -638
-394 -997 -143 -825 122 -1668 710 -2259 142 -143 240 -224 395 -327 250 -167
541 -296 827 -368 568 -143 1145 -100 1677 125 325 137 587 316 841 570 445
448 700 1028 740 1684 15 249 -5 499 -60 737 -71 309 -182 572 -352 832 -264
404 -605 707 -1037 923 -394 197 -864 291 -1317 265z m521 -159 c556 -84 1021
-322 1411 -722 381 -391 618 -882 679 -1406 19 -165 19 -474 0 -629 -32 -262
-109 -524 -221 -759 -46 -97 -172 -310 -227 -384 -243 -328 -571 -599 -943
-776 -183 -87 -482 -178 -659 -200 -27 -3 -79 -11 -115 -18 -37 -7 -155 -12
-275 -12 -236 0 -420 20 -575 61 -52 14 -120 31 -150 39 -79 20 -153 47 -243
89 -42 20 -82 36 -87 36 -11 0 -149 70 -240 122 -217 124 -494 367 -675 593
-121 151 -277 423 -355 619 -64 162 -126 407 -151 596 -17 136 -15 459 5 610
70 532 307 1020 690 1417 427 444 971 697 1611 747 108 8 395 -4 520 -23z"/>
<path d="M3803 5523 c-17 -3 -23 -11 -23 -29 0 -35 -26 -81 -50 -89 -19 -6
-20 -15 -20 -124 l0 -117 65 -63 65 -63 0 -364 0 -364 35 0 35 0 0 370 0 371
-40 38 c-44 42 -50 72 -25 121 18 35 43 50 85 50 17 0 40 -5 51 -10 22 -13 49
-61 49 -90 0 -33 -26 -75 -54 -88 l-26 -12 0 -375 0 -376 38 3 37 3 0 162 0
162 113 114 112 114 0 99 0 98 -145 146 c-80 81 -145 154 -145 164 0 10 -12
21 -30 28 -35 12 -60 53 -60 98 0 31 -8 34 -67 23z"/>
<path d="M4060 5489 c0 -33 -6 -47 -30 -69 -16 -15 -30 -34 -30 -42 0 -7 63
-76 140 -153 l140 -140 0 -115 0 -115 -110 -110 -110 -110 0 -163 0 -163 38 3
37 3 3 115 3 116 109 109 110 110 0 297 c0 283 -1 297 -19 303 -30 9 -45 34
-51 84 l-5 46 -85 17 c-47 9 -97 17 -112 18 -26 0 -28 -3 -28 -41z"/>
<path d="M3550 5490 c-14 -4 -51 -8 -82 -9 l-58 -1 0 -79 c0 -87 -5 -111 -25
-111 -31 0 -251 -82 -355 -133 -159 -77 -251 -133 -388 -236 -314 -238 -573
-586 -716 -965 l-42 -111 -95 -5 c-52 -3 -93 -8 -91 -12 1 -5 2 -12 2 -18 0
-5 9 -10 21 -10 11 0 44 -23 74 -51 l54 -51 200 -5 201 -5 67 -63 68 -64 5
354 c4 318 7 356 22 375 17 19 29 20 192 20 167 0 176 -1 200 -22 13 -13 126
-153 251 -313 124 -159 265 -339 313 -400 l87 -110 3 425 2 425 -170 170
c-167 167 -170 171 -170 213 0 36 -4 44 -24 52 -35 13 -60 56 -59 98 1 43 48
92 88 92 56 0 105 -47 105 -100 0 -33 -29 -80 -55 -90 -20 -7 -25 -17 -25 -42
0 -29 20 -54 170 -210 l170 -176 0 -452 0 -452 38 -51 37 -51 3 534 3 535 -96
92 c-93 90 -95 93 -95 138 0 39 -3 47 -24 55 -32 12 -56 48 -56 83 0 92 99
140 161 78 53 -53 35 -140 -33 -164 -13 -5 -18 -17 -18 -43 0 -33 10 -47 95
-133 l95 -97 0 -558 0 -558 38 -51 37 -51 3 789 c2 732 1 791 -14 800 -71 42
-84 116 -29 171 34 34 93 33 129 -2 21 -21 26 -36 26 -74 0 -42 -4 -52 -31
-74 -17 -14 -35 -26 -40 -26 -5 0 -9 -323 -9 -813 l0 -813 32 -42 c28 -37 33
-40 42 -24 5 9 60 71 121 137 62 66 194 210 295 319 l182 200 -3 367 -4 368
90 93 c49 51 93 97 97 102 4 5 14 4 23 -4 14 -12 5 -24 -78 -109 l-95 -96 -4
-349 -4 -348 43 45 43 46 0 277 0 278 100 101 c98 100 100 103 100 149 0 42
-4 51 -40 85 -50 47 -54 92 -14 140 50 60 148 30 160 -49 6 -41 -25 -99 -57
-107 -16 -5 -19 -14 -19 -72 l0 -66 -100 -100 -100 -100 0 -243 c0 -134 4
-242 8 -240 5 2 84 86 176 188 93 102 179 195 193 208 24 22 28 22 288 22 261
0 264 0 279 -22 34 -49 47 -31 -325 -433 -156 -169 -285 -310 -287 -315 -2 -4
119 -7 267 -6 l271 1 73 73 72 72 77 0 c76 0 78 1 93 29 34 67 106 82 156 32
56 -57 29 -153 -47 -167 -45 -8 -80 8 -102 46 -17 29 -19 30 -92 30 l-76 0
-69 -70 -69 -70 -291 0 -291 0 -44 -45 -44 -45 370 0 371 0 52 55 53 55 243 0
243 0 12 29 c6 16 22 39 35 51 14 13 22 27 19 31 -3 5 -33 9 -67 9 l-62 0 -27
109 c-169 682 -698 1251 -1386 1491 l-92 33 -1 66 c0 36 -4 75 -8 86 -7 18 -9
17 -24 -12 -9 -17 -29 -40 -44 -51 l-28 -20 -3 -303 -3 -303 -109 -106 -110
-106 0 -112 0 -112 28 0 c61 0 62 -7 62 -324 l0 -288 -58 -61 c-388 -410 -367
-393 -417 -342 l-25 24 0 470 0 469 25 30 25 30 -2 357 -3 357 -67 62 -68 63
0 117 0 117 -35 33 c-19 19 -35 43 -35 55 0 22 -9 24 -50 11z"/>
<path d="M3186 5380 c-354 -125 -648 -314 -893 -576 -135 -144 -169 -187 -264
-329 -102 -154 -183 -313 -235 -460 -24 -69 -44 -128 -44 -130 0 -3 27 -5 60
-5 43 0 60 4 60 13 0 27 83 225 136 327 205 390 518 707 902 917 101 55 211
103 352 153 l105 38 3 56 c2 31 -1 56 -5 55 -4 0 -84 -27 -177 -59z"/>
<path d="M4536 5369 c-4 -29 -3 -55 1 -59 4 -4 50 -21 102 -39 210 -72 479
-228 671 -389 343 -287 595 -684 698 -1101 l26 -103 50 7 c28 3 52 8 54 10 15
15 -95 354 -167 514 -211 469 -669 912 -1151 1113 -93 38 -257 98 -271 98 -3
0 -9 -23 -13 -51z"/>
<path d="M3900 5185 c-26 -32 13 -81 48 -59 34 22 22 74 -18 74 -10 0 -23 -7
-30 -15z"/>
<path d="M3678 4889 c-33 -19 -15 -69 24 -69 15 0 38 27 38 44 0 7 -31 36 -38
36 -4 0 -15 -5 -24 -11z"/>
<path d="M3100 4860 c-16 -31 4 -62 38 -58 19 2 28 10 30 26 7 47 -47 72 -68
32z"/>
<path d="M4680 4826 c-18 -22 -5 -48 22 -44 17 2 23 10 23 28 0 29 -26 38 -45
16z"/>
<path d="M3372 4791 c-8 -5 -12 -21 -10 -37 2 -23 9 -30 29 -32 36 -4 55 21
41 53 -12 25 -36 32 -60 16z"/>
<path d="M1686 3748 c-3 -7 -9 -28 -15 -47 -12 -38 -12 -39 21 -55 13 -6 30
-26 38 -43 l15 -33 105 -1 c58 -2 123 -1 145 0 39 2 44 -2 165 -124 l125 -125
52 0 53 0 0 93 0 92 -84 84 -84 84 -193 -5 -193 -5 -52 48 c-50 48 -90 63 -98
37z"/>
<path d="M5766 3694 c-16 -16 -9 -45 14 -59 17 -11 50 6 50 25 0 49 -32 66
-64 34z"/>
<path d="M1760 3534 c-9 -3 -20 -15 -25 -27 -6 -12 -26 -31 -47 -42 -27 -14
-39 -29 -48 -58 -18 -61 -29 -194 -19 -235 5 -20 13 -77 18 -126 6 -49 14 -93
19 -98 5 -5 91 -11 193 -13 l184 -5 91 91 92 91 86 -5 86 -6 0 45 0 44 -265 0
-264 0 -16 -29 c-41 -81 -144 -82 -185 -2 -25 48 10 118 68 136 34 10 90 -13
109 -46 l17 -29 268 0 268 0 0 35 0 35 -58 0 -57 0 -125 125 -125 125 -125 -1
c-69 -1 -132 -3 -140 -5z"/>
<path d="M5544 3450 l-50 -51 -365 1 c-200 0 -378 -2 -394 -6 -17 -4 -43 -22
-58 -40 l-29 -34 586 0 c498 0 586 2 586 14 0 22 58 66 86 66 14 0 38 -7 54
-15 97 -50 44 -198 -63 -178 -26 5 -77 54 -77 74 0 5 -237 9 -592 9 l-592 0
39 -40 39 -40 360 0 361 0 87 -87 87 -86 208 -1 209 -1 42 44 c40 42 43 44 87
38 l46 -7 -3 153 -3 152 -25 3 c-40 5 -71 24 -86 54 l-15 28 -237 0 -237 0
-51 -50z"/>
<path d="M2890 3368 l0 -48 35 0 c19 0 35 3 35 8 0 4 -16 25 -35 47 l-34 40
-1 -47z"/>
<path d="M5879 3324 c-17 -21 0 -49 31 -49 31 0 48 28 31 49 -8 9 -21 16 -31
16 -10 0 -23 -7 -31 -16z"/>
<path d="M2890 3250 l0 -40 75 0 c41 0 75 4 75 9 0 5 -12 23 -26 40 -22 27
-32 31 -75 31 l-49 0 0 -40z"/>
<path d="M1726 3224 c-21 -20 -20 -30 5 -55 18 -18 23 -19 42 -6 28 18 32 40
12 61 -21 20 -39 20 -59 0z"/>
<path d="M2890 3145 l0 -45 115 0 c63 0 115 4 115 9 0 10 -39 62 -55 73 -5 4
-47 8 -92 8 l-83 0 0 -45z"/>
<path d="M4740 3182 c0 -4 17 -25 38 -45 l38 -37 285 0 284 0 85 -85 85 -85
142 0 142 0 57 -60 c68 -72 90 -75 145 -25 39 35 52 39 117 35 22 -1 34 4 38
15 9 22 -12 35 -56 35 -42 0 -78 22 -90 56 l-10 24 -228 0 -229 0 -82 90 -83
90 -339 0 c-186 0 -339 -4 -339 -8z"/>
<path d="M2143 2995 l-78 -85 -120 0 c-66 0 -157 -3 -203 -7 l-83 -6 3 -31 3
-31 215 -3 215 -2 80 80 80 80 67 0 68 0 0 45 0 45 -84 0 -85 0 -78 -85z"/>
<path d="M2890 3035 l0 -45 160 0 c88 0 160 4 160 8 0 4 -15 25 -34 45 l-34
37 -126 0 -126 0 0 -45z"/>
<path d="M4850 3071 c0 -5 94 -108 208 -228 489 -513 502 -527 502 -555 0 -17
-10 -34 -26 -47 -25 -20 -39 -21 -281 -21 -205 0 -258 3 -276 15 -12 8 -123
122 -246 254 -124 133 -226 240 -227 238 -2 -1 -5 -139 -8 -307 l-4 -304 79
-81 79 -81 0 -67 c0 -61 2 -68 23 -76 49 -19 73 -68 56 -118 -23 -70 -121 -83
-159 -20 -11 18 -20 44 -20 58 0 31 32 75 60 84 17 5 20 15 20 63 l0 57 -80
80 -80 80 0 338 0 338 -45 47 -45 47 0 -410 0 -410 77 -77 c55 -56 73 -79 62
-83 -10 -4 -42 22 -93 72 l-77 78 2 425 c2 289 -1 432 -9 445 -5 11 -25 34
-42 50 l-32 30 7 -585 6 -585 105 -100 c101 -97 105 -101 104 -142 0 -31 4
-43 14 -43 22 0 66 -58 66 -86 0 -14 -7 -38 -15 -54 -29 -55 -85 -66 -133 -25
-55 47 -50 130 9 161 23 12 29 21 29 48 0 31 -11 45 -105 132 l-105 97 0 225
c0 178 -3 222 -12 214 -7 -5 -28 -13 -45 -17 l-33 -7 0 -230 0 -231 70 -78 70
-77 0 -132 0 -133 41 -44 c37 -40 41 -49 35 -82 -12 -77 -93 -106 -147 -52
-49 50 -38 123 25 158 12 7 16 34 20 142 l5 134 -70 72 -71 72 1 241 2 242
-41 0 -40 0 0 -259 c0 -218 2 -261 15 -271 13 -10 15 -53 15 -271 0 -248 1
-258 20 -264 49 -15 76 -96 50 -146 -9 -16 -7 -19 12 -19 13 1 43 5 68 11 25
5 97 19 160 29 63 10 142 27 175 37 l60 19 3 90 3 90 82 34 c184 74 360 178
527 311 105 83 296 278 371 379 135 183 248 395 313 591 l35 104 44 3 44 3
-21 44 c-19 40 -24 44 -58 45 -31 0 -44 8 -85 51 -26 28 -49 55 -51 60 -2 5
-69 9 -151 9 l-146 0 -90 90 -90 90 -257 0 c-149 0 -258 -4 -258 -9z"/>
<path d="M2190 2885 l-75 -83 -151 -1 c-83 0 -185 -4 -226 -7 l-75 -7 16 -48
16 -48 90 -3 89 -3 22 -75 c29 -100 53 -158 119 -289 170 -339 445 -642 770
-846 97 -61 297 -161 383 -191 l52 -19 0 -62 c0 -97 14 -119 81 -128 27 -4 27
-3 12 26 -20 41 -8 84 33 117 l34 27 0 296 0 296 115 112 115 111 0 208 0 208
-37 52 c-21 28 -41 52 -45 52 -5 0 -8 -44 -8 -99 l0 -98 -170 -166 -170 -166
0 -101 0 -101 40 -38 c42 -40 50 -69 29 -114 -24 -52 -110 -64 -153 -21 -37
37 -36 91 2 127 15 15 33 27 39 27 7 0 12 42 15 118 l4 117 172 170 172 169 0
110 0 109 -42 55 -43 55 -5 -116 -5 -116 -219 -221 c-210 -210 -222 -220 -258
-220 -28 0 -38 -4 -38 -16 0 -8 -14 -29 -30 -46 -27 -27 -36 -30 -71 -25 -50
7 -77 30 -85 72 -7 37 15 89 45 105 47 25 121 -2 136 -50 5 -14 15 -20 38 -20
28 0 55 24 244 217 l213 218 1 110 c1 61 0 121 -1 135 -2 27 -130 194 -156
204 -8 3 -79 4 -157 1 -78 -3 -150 -5 -159 -5 -17 0 -18 -23 -18 -344 0 -323
-1 -345 -19 -367 -19 -24 -23 -24 -225 -27 l-206 -3 -25 25 -25 25 0 351 0
350 -62 -1 -63 -1 -75 -83z"/>
<path d="M5991 2639 c-6 -13 -27 -69 -47 -124 -46 -127 -146 -324 -223 -440
-222 -337 -578 -632 -946 -786 l-105 -44 0 -57 c0 -32 4 -58 10 -58 5 0 29 9
52 19 24 11 88 38 142 61 232 96 471 265 682 482 122 126 148 158 260 323 99
147 206 362 253 508 38 120 39 127 4 127 -16 0 -38 3 -50 6 -17 5 -25 1 -32
-17z"/>
<path d="M1740 2633 c1 -10 8 -36 16 -58 8 -22 26 -73 39 -113 27 -84 124
-278 195 -393 120 -194 300 -399 490 -560 145 -123 463 -304 638 -363 l72 -25
0 63 0 62 -52 18 c-95 34 -311 146 -423 221 -271 182 -481 402 -651 682 -80
131 -118 212 -175 366 l-44 117 -52 0 c-44 0 -53 -3 -53 -17z"/>
<path d="M3640 2237 l0 -182 -115 -115 -115 -115 0 -291 0 -292 35 -35 c66
-66 30 -157 -60 -157 -14 0 -25 -4 -25 -8 0 -10 2 -10 85 -17 33 -3 74 -7 90
-10 17 -3 61 -8 99 -12 l70 -6 -22 30 c-14 20 -22 46 -22 71 0 35 6 45 40 75
l40 34 0 84 0 84 -55 48 -55 48 0 117 0 117 100 100 100 100 0 155 0 155 -40
33 -40 33 0 -158 0 -158 -105 -105 -105 -105 0 -160 0 -160 58 -52 c47 -43 54
-54 42 -62 -12 -8 -28 2 -72 47 l-58 56 0 171 0 170 105 105 105 105 0 179 0
179 -32 43 c-18 24 -36 44 -40 44 -5 0 -8 -82 -8 -183z"/>
<path d="M3850 2052 l0 -167 -100 -100 -100 -100 0 -95 0 -96 54 -53 55 -54 7
-97 c6 -91 8 -99 31 -109 13 -6 31 -27 39 -47 20 -47 4 -98 -38 -124 l-29 -18
33 -6 c31 -6 218 -6 218 -1 0 2 -7 16 -15 31 -25 48 -19 83 20 120 l35 33 0
244 c0 205 -2 247 -15 257 -13 11 -15 55 -15 281 l0 269 -38 0 -39 0 -6 -112
c-4 -62 -7 -184 -7 -270 l0 -157 30 -16 c38 -20 65 -73 56 -110 -19 -75 -103
-100 -157 -46 -48 48 -30 137 31 156 19 6 20 16 20 281 l0 274 -35 0 -35 0 0
-168z"/>
<path d="M2770 2096 c-28 -35 11 -93 48 -70 23 15 27 48 7 68 -20 20 -39 20
-55 2z"/>
<path d="M3132 1768 c-27 -27 -6 -68 35 -68 24 0 43 26 35 50 -10 30 -48 40
-70 18z"/>
<path d="M4617 1754 c-24 -24 13 -72 42 -55 20 13 9 56 -14 59 -12 2 -24 0
-28 -4z"/>
<path d="M3904 1596 c-11 -28 1 -51 25 -51 32 0 49 28 32 49 -17 20 -50 21
-57 2z"/>
<path d="M4464 1456 c-15 -12 -16 -17 -7 -27 15 -15 46 -22 37 -8 -3 5 -12 9
-20 9 -8 0 -12 5 -9 10 4 6 10 8 14 6 4 -3 8 1 8 9 0 18 1 18 -23 1z"/>
<path d="M3720 1100 c0 -5 5 -10 10 -10 6 0 10 5 10 10 0 6 -4 10 -10 10 -5 0
-10 -4 -10 -10z"/>
<path d="M3325 890 c3 -5 15 -10 25 -10 10 0 21 -6 23 -12 4 -10 6 -10 6 0 1
7 -11 17 -25 22 -32 13 -37 12 -29 0z"/>
<path d="M4288 843 c6 -2 18 -2 25 0 6 3 1 5 -13 5 -14 0 -19 -2 -12 -5z"/>
<path d="M4225 830 c4 -6 11 -8 16 -5 14 9 11 15 -7 15 -8 0 -12 -5 -9 -10z"/>
</g>
</svg>
